<?xml version="1.0" encoding="utf-8"?>
<!-- Generator: Adobe Illustrator 15.0.0, SVG Export Plug-In . SVG Version: 6.00 Build 0)  -->
<!DOCTYPE svg PUBLIC "-//W3C//DTD SVG 1.1//EN" "http://www.w3.org/Graphics/SVG/1.1/DTD/svg11.dtd">
<svg version="1.1" id="图层_1" xmlns="http://www.w3.org/2000/svg" xmlns:xlink="http://www.w3.org/1999/xlink" x="0px" y="0px"
	 width="1440px" height="420px" viewBox="0 0 1440 420" enable-background="new 0 0 1440 420" xml:space="preserve">
<title>Oval</title>
<desc>Created with Sketch.</desc>
<g id="Page-1" opacity="0.52">
	<g id="支持与服务-copy-6" transform="translate(0.000000, -538.000000)">
		<g id="Oval-2" transform="translate(-693.000000, -650.000000)">
			<g id="Oval">
				<g id="分组">
					<g id="分组-20">
						
							<g id="分组-18" transform="translate(2033.277771, 1271.865592) scale(-1, 1) rotate(-31.000000) translate(-2033.277771, -1271.865592) translate(2027.777771, 1231.865592)">
							<path id="椭圆形-copy-7" fill="#5480FF" d="M1.492,2.412c0.691,0,1.251-0.54,1.251-1.206c0-0.665-0.56-1.205-1.25-1.205
								c-0.691,0-1.251,0.539-1.251,1.206C0.242,1.873,0.802,2.412,1.492,2.412z"/>
							<path id="椭圆形-copy-9" fill="#5480FF" d="M8.989,79.249c0.691,0,1.251-0.54,1.251-1.206c0-0.665-0.56-1.205-1.25-1.205
								c-0.691,0-1.251,0.539-1.251,1.206C7.739,78.709,8.299,79.248,8.989,79.249z"/>
						</g>
						
							<g id="分组-15" transform="translate(1345.543410, 1344.041948) rotate(-13.000000) translate(-1345.543410, -1344.041948) translate(224.043410, 224.041948)">
							
								<g id="分组-13" transform="translate(1121.272905, 1120.406717) rotate(-316.000000) translate(-1121.272905, -1120.406717) translate(295.772905, 361.406717)">
								<path id="路径" opacity="0.7" fill="none" stroke="#6ACAFF" stroke-width="0.5" enable-background="new    " d="
									M7.009,1517.259c100.942-94.108,72.495-267.058,240.016-430.226c222.869-217.077,692.819-132.093,950.684-325.065
									c257.867-192.972,79.863-424.182,443.722-761.841"/>
								<path id="路径_1_" fill="none" stroke="#6ACAFF" stroke-width="0.5" d="M7.009,1517.259
									c100.942-94.108,52.415-277.596,219.936-440.763C449.815,859.42,884.77,978.192,1197.71,782.992
									c312.939-195.201,79.863-445.205,443.721-782.864"/>
								
									<ellipse id="椭圆形" transform="matrix(2.701680e-005 1 -1 2.701680e-005 1771.9385 -1070.589)" fill="#5480FF" cx="1421.278" cy="350.699" rx="2.411" ry="2.501"/>
								<path id="路径-copy" fill="none" stroke="#6ACAFF" stroke-width="0.5" d="M0.314,1506.116
									c100.942-94.108,50.355-281.025,217.876-444.192c222.869-217.077,680.815-74.069,993.755-269.27
									c312.939-195.2,74.384-440.296,438.242-777.956"/>
								<path id="路径_2_" opacity="0.6" fill="none" stroke="#6ACAFF" stroke-width="0.5" enable-background="new    " d="
									M7.009,1517.259c100.942-94.108,87.297-252.966,254.818-416.133c222.869-217.076,738.847-169.952,941.842-373.307
									c202.995-203.353,73.904-390.032,437.762-727.692"/>
								<path id="路径_3_" opacity="0.5" fill="none" stroke="#6ACAFF" stroke-width="0.5" enable-background="new    " d="
									M7.009,1517.259c100.942-94.108,98.367-232.747,265.887-395.914c222.869-217.077,757.486-217.054,924.704-424.407
									s79.972-359.151,443.83-696.811"/>
								<path id="路径_4_" opacity="0.3" fill="none" stroke="#6ACAFF" stroke-width="0.5" enable-background="new    " d="
									M7.009,1517.259c100.942-94.108,107.891-219.512,275.412-382.679c222.869-217.077,722.487-232.036,908.038-481.018
									c155.08-208.095,87.113-315.775,450.971-653.435"/>
								<path id="路径_5_" opacity="0.1" fill="none" stroke="#6ACAFF" stroke-width="0.5" enable-background="new    " d="
									M7.009,1517.259c100.942-94.108,117.416-201.865,284.937-365.032c222.869-217.076,646.771-238.667,851.899-501.579
									c191.064-244.888,133.728-312.862,497.586-650.521"/>
							</g>
							
								<g id="分组-2" transform="translate(403.427312, 1155.181378) scale(1, -1) translate(-403.427312, -1155.181378) translate(115.927312, 904.681378)">
								
									<ellipse id="椭圆形-copy-42" transform="matrix(-7.077059e-006 -1 1 -7.077059e-006 333.0893 710.1441)" fill="#FFFFFF" cx="521.614" cy="188.529" rx="2.6" ry="-2.805"/>
								
									<ellipse id="椭圆形-copy-37" transform="matrix(6.989637e-006 -1 1 6.989637e-006 334.3569 672.4097)" fill="#FFFFFF" cx="503.386" cy="169.025" rx="3.901" ry="-4.207"/>
								
									<ellipse id="椭圆形-copy-41" transform="matrix(6.989637e-006 -1 1 6.989637e-006 318.3206 712.2837)" fill="#FFFFFF" cx="515.305" cy="196.98" rx="1.95" ry="-2.103"/>
								<path id="椭圆形-copy-34" fill="#FFFFFF" d="M429.771,232.735c0.387,0,0.701-0.291,0.701-0.65
									c0-0.36-0.314-0.65-0.701-0.65c-0.387,0-0.701,0.291-0.701,0.65C429.07,232.444,429.384,232.736,429.771,232.735z"/>
								<path id="椭圆形-copy-54" fill="#5480FF" d="M573.945,500.27c0.382-0.056,0.643-0.389,0.583-0.744
									c-0.061-0.354-0.42-0.597-0.802-0.54c-0.382,0.056-0.643,0.39-0.583,0.744C573.203,500.084,573.562,500.326,573.945,500.27z
									"/>
								<path id="椭圆形-copy-51" fill="#FFFFFF" d="M460.619,222.334c0.387,0,0.701-0.291,0.701-0.651
									c0-0.359-0.314-0.649-0.701-0.65c-0.387,0-0.701,0.292-0.701,0.651C459.918,222.043,460.232,222.333,460.619,222.334z"/>
								<path id="椭圆形-copy-53" opacity="0.4" fill="#5480FF" enable-background="new    " d="M396.118,374.457
									c1.162,0,2.103-0.873,2.103-1.95c0-1.077-0.941-1.95-2.103-1.95c-1.162,0-2.104,0.873-2.104,1.95
									C394.015,373.584,394.957,374.457,396.118,374.457z"/>
							</g>
							<g id="分组-2_1_" transform="translate(586.202575, 941.475330)">
								
									<ellipse id="椭圆形-copy-67" transform="matrix(0.4384 0.8988 -0.8988 0.4384 573.4874 -521.6481)" opacity="0.4" fill="#6ACAFF" enable-background="new    " cx="704.168" cy="198.082" rx="2.5" ry="3"/>
								
									<ellipse id="椭圆形-copy-42_1_" transform="matrix(0.4384 0.8988 -0.8988 0.4384 4.6247 -0.6435)" opacity="0.5" fill="#6ACAFF" enable-background="new    " cx="2.827" cy="3.379" rx="2.6" ry="2.808"/>
								
									<ellipse id="椭圆形-copy-37_1_" transform="matrix(0.4383 0.8988 -0.8988 0.4383 821.5329 -947.5065)" fill="#FFFFFF" cx="1168.893" cy="183.578" rx="3.899" ry="4.212"/>
								
									<ellipse id="椭圆形-copy-41_1_" transform="matrix(0.4383 0.8988 -0.8988 0.4383 815.0051 -933.1607)" fill="#FFFFFF" cx="1154.15" cy="185.528" rx="1.95" ry="2.106"/>
								
									<ellipse id="椭圆形-copy-14" transform="matrix(0.4383 0.8988 -0.8988 0.4383 472.6057 -526.8508)" fill="#FFFFFF" cx="657.819" cy="114.691" rx="2.6" ry="2.808"/>
								
									<ellipse id="椭圆形-copy-17" transform="matrix(0.4383 0.8988 -0.8988 0.4383 699.9357 -576.0669)" fill="#FFFFFF" cx="810.86" cy="271.962" rx="2.6" ry="2.808"/>
								
									<ellipse id="椭圆形-copy-18" transform="matrix(0.4383 0.8988 -0.8988 0.4383 795.0856 -886.8903)" fill="#FFFFFF" cx="1107.115" cy="192.677" rx="2.6" ry="2.808"/>
								
									<ellipse id="椭圆形-copy-43" transform="matrix(0.4383 0.8988 -0.8988 0.4383 714.0016 -853.3275)" fill="#FFFFFF" cx="1039.72" cy="144.585" rx="2.6" ry="2.809"/>
								
									<ellipse id="椭圆形-copy-20" transform="matrix(0.4383 0.8988 -0.8988 0.4383 491.1731 -602.0881)" fill="#FFFFFF" cx="727.319" cy="91.945" rx="1.95" ry="2.107"/>
								
									<ellipse id="椭圆形-copy-31" transform="matrix(0.4384 0.8988 -0.8988 0.4384 935.9131 -735.5714)" fill="#FFFFFF" cx="1056.569" cy="381.142" rx="1.3" ry="1.404"/>
								
									<ellipse id="椭圆形-copy-70" transform="matrix(0.4383 0.8988 -0.8988 0.4383 945.4694 -777.9567)" fill="#FFFFFF" cx="1095.18" cy="367.494" rx="1.95" ry="2.107"/>
								
									<ellipse id="椭圆形-copy-71" transform="matrix(0.4384 0.8988 -0.8988 0.4384 944.611 -965.2529)" fill="#FFFFFF" cx="1244.712" cy="273.262" rx="1.3" ry="1.404"/>
								
									<ellipse id="椭圆形-copy-50" transform="matrix(0.4385 0.8988 -0.8988 0.4385 686.5328 -586.0646)" fill="#6ACAFF" cx="812.264" cy="256.365" rx="1.3" ry="1.405"/>
								<path id="椭圆形-copy" opacity="0.4" fill="#6ACAFF" enable-background="new    " d="M463.079,386.258
									c1.551,0,2.808-1.164,2.808-2.599c0.001-1.435-1.257-2.599-2.807-2.6c-1.551,0-2.808,1.164-2.808,2.6
									C460.27,385.095,461.528,386.259,463.079,386.258z"/>
								<path id="椭圆形-copy-54_1_" fill="#6ACAFF" d="M1206.311,322.738c0.383-0.056,0.644-0.389,0.583-0.743
									c-0.06-0.355-0.421-0.597-0.803-0.54c-0.383,0.056-0.644,0.389-0.583,0.743
									C1205.568,322.553,1205.928,322.795,1206.311,322.738z"/>
								<path id="椭圆形-copy-60" fill="#6ACAFF" d="M664.137,132.887c0.388,0,0.702-0.291,0.702-0.65
									c0-0.359-0.315-0.65-0.702-0.65c-0.388,0-0.703,0.291-0.702,0.65C663.435,132.597,663.749,132.887,664.137,132.887z"/>
								<path id="椭圆形-copy-61" fill="#6ACAFF" d="M1036.912,433.132c0.775,0,1.404-0.582,1.403-1.3
									c0-0.718-0.628-1.3-1.404-1.3c-0.776,0.001-1.404,0.583-1.405,1.3C1035.508,432.55,1036.137,433.132,1036.912,433.132z"/>
								<path id="椭圆形-copy-58" fill="#6ACAFF" d="M1031.296,344.749c0.776,0,1.404-0.582,1.403-1.3
									c0-0.718-0.628-1.3-1.404-1.3c-0.775,0-1.404,0.582-1.404,1.3C1029.892,344.167,1030.52,344.749,1031.296,344.749z"/>
							</g>
						</g>
					</g>
				</g>
			</g>
		</g>
	</g>
</g>
</svg>
