<?xml version="1.0" encoding="UTF-8"?>
<svg width="8px" height="5px" viewBox="0 0 8 5" version="1.1" xmlns="http://www.w3.org/2000/svg" xmlns:xlink="http://www.w3.org/1999/xlink">
    <!-- Generator: Sketch 52.4 (67378) - http://www.bohemiancoding.com/sketch -->
    <title>Combined Shape</title>
    <desc>Created with Sketch.</desc>
    <g id="Page-1" stroke="none" stroke-width="1" fill="none" fill-rule="evenodd" opacity="0.7">
        <g id="首页" transform="translate(-940.000000, -31.000000)" fill="#FFFFFF" fill-rule="nonzero">
            <g id="分组-5" transform="translate(0.000000, 1.000000)">
                <path d="M945.701394,32.0390769 C945.757964,32.0630517 945.810959,32.0982446 945.857034,32.1446557 C946.047655,32.336665 946.047655,32.6479736 945.857034,32.8399828 L942.865739,35.8530669 C942.86491,35.8539019 942.864078,35.8547339 942.863243,35.8555628 C942.672622,36.0448052 942.364683,36.0436877 942.17544,35.8530669 C941.984416,35.6606508 941.984416,35.3501559 942.17544,35.1577398 L944.796174,32.5179169 L942.139866,29.8422602 C941.948841,29.6498441 941.948841,29.3393492 942.139866,29.1469331 C942.329108,28.9563123 942.637048,28.9551948 942.827669,29.1444372 C942.828504,29.1452661 942.829336,29.1460981 942.830164,29.1469331 L945.701394,32.0390769 Z" id="Combined-Shape" transform="translate(944.000000, 32.500000) rotate(90.000000) translate(-944.000000, -32.500000) "></path>
            </g>
        </g>
    </g>
</svg>